<?xml version="1.0" encoding="utf-8"?>
<!-- Generator: Adobe Illustrator 21.1.0, SVG Export Plug-In . SVG Version: 6.00 Build 0)  -->
<svg version="1.1" id="Capa_1" xmlns="http://www.w3.org/2000/svg" xmlns:xlink="http://www.w3.org/1999/xlink" x="0px" y="0px"
	 viewBox="0 0 188.3 47.7" style="enable-background:new 0 0 188.3 47.7;" xml:space="preserve">
<style type="text/css">
	.st0{fill:#FFFFFF;}
</style>
<g>
	<polygon class="st0" points="7.4,7.1 0,7.1 0,40.7 21,40.7 21,33.9 7.4,33.9 	"/>
	<circle class="st0" cx="27.8" cy="10.7" r="4.1"/>
	<rect x="24.2" y="17.9" class="st0" width="7.1" height="22.8"/>
	<polygon class="st0" points="84.6,17.9 76,17.9 67.9,27.1 67.9,7.1 60.9,7.1 60.9,40.7 67.9,40.7 67.9,29.4 68,29.4 75.5,40.7 
		84.4,40.7 75.4,28.4 	"/>
	<path class="st0" d="M48.8,17.3c-3.4,0-5.8,1.9-6.7,3.7H42v-3.1h-6.8v22.8h7.1V29.4c0-3,0.6-5.8,4.2-5.8c3.6,0,3.7,3.4,3.7,6v11.1
		h7.1V28.2C57.3,22,56,17.3,48.8,17.3z"/>
	<path class="st0" d="M95.8,17.2c-7.1,0-12.7,4.7-12.7,12c0,7.3,5.7,12,12.7,12c3.7,0,7.4-1.7,9.7-4.5l-5-3.6
		c-1.2,1.6-2.7,2.8-5,2.8c-2.7,0-4.8-1.7-5.3-4.4h16.4v-2.2C106.6,21.9,102.4,17.2,95.8,17.2z M90.2,26.6c0.2-2.2,1.9-4.3,5-4.3
		c2.5,0,4.4,2,4.3,4.3H90.2z"/>
	<path class="st0" d="M126.4,20.2L126.4,20.2c-1.7-2.2-4.4-3-7.4-3c-6.5,0-10.5,5.8-10.5,12.2c0,6.9,4.5,11.8,11.3,11.8
		c3.2,0,5.9-1.9,7-3.6h0.1v3h6.5V7.1h-7.1V20.2z M121.3,35c-3.5,0-5.7-2.4-5.7-5.8c0-3.4,2.1-5.8,5.7-5.8c3.5,0,5.7,2.4,5.7,5.8
		C127,32.6,124.9,35,121.3,35z"/>
	<path class="st0" d="M184.7,0h-40.7c-1.9,0-3.5,1.5-3.5,3.4v40.8c0,1.9,1.6,3.4,3.5,3.4h40.7c1.9,0,3.5-1.5,3.5-3.4V3.4
		C188.3,1.5,186.7,0,184.7,0z M154.7,40.7h-7.1V17.9h7.1V40.7z M151.2,14.8c-2.3,0-4.1-1.8-4.1-4.1c0-2.3,1.8-4.1,4.1-4.1
		c2.3,0,4.1,1.8,4.1,4.1C155.3,12.9,153.4,14.8,151.2,14.8z M181.2,40.7h-7.1V29.6c0-2.6,0-6-3.7-6c-3.7,0-4.2,2.9-4.2,5.8v11.3
		h-7.1V17.9h6.8V21h0.1c0.9-1.8,3.3-3.7,6.7-3.7c7.2,0,8.5,4.7,8.5,10.8V40.7z"/>
</g>
</svg>
