<?xml version="1.0" encoding="utf-8"?>
<!-- Generator: Adobe Illustrator 21.1.0, SVG Export Plug-In . SVG Version: 6.00 Build 0)  -->
<svg version="1.1" id="Layer_1" xmlns="http://www.w3.org/2000/svg" xmlns:xlink="http://www.w3.org/1999/xlink" x="0px" y="0px"
	 viewBox="0 0 872.7 174.5" style="enable-background:new 0 0 872.7 174.5;" xml:space="preserve">
<style type="text/css">
	.st0{fill:#55565A;}
	.st1{fill:#FFFFFF;}
	.st2{fill:#E2231A;}
</style>
<path id="XMLID_47_" class="st0" d="M106.1,8.1L106.1,8.1c5.2,6.3,13.4,9.2,21.5,7.8c14-2.5,26.8,8.2,26.8,22.4
	c0,8.1,4.3,15.7,11.4,19.7c12.3,7,15.2,23.5,6.1,34.3c-5.3,6.2-6.8,14.8-4,22.4c4.9,13.3-3.5,27.7-17.5,30.2
	c-8.1,1.4-14.7,7-17.5,14.6c-4.8,13.3-20.6,19-32.9,11.9c-7.1-4.1-15.8-4.1-22.9,0c-12.3,7.1-28,1.4-32.9-11.9
	c-2.8-7.7-9.5-13.2-17.5-14.6c-14-2.4-22.4-16.9-17.5-30.2c2.8-7.6,1.3-16.2-4-22.4C-3.8,81.5-0.9,65.1,11.4,58
	c7.1-4.1,11.5-11.6,11.4-19.7c0-14.1,12.8-24.9,26.8-22.4c8,1.4,16.3-1.5,21.5-7.8C80.3-2.7,97-2.7,106.1,8.1"/>
<path id="XMLID_46_" class="st1" d="M149.2,88.9c0-33.3-27.1-60.3-60.5-60.3c-33.4,0-60.5,27-60.5,60.3s27.1,60.3,60.5,60.3
	C122.1,149.2,149.2,122.2,149.2,88.9"/>
<path id="XMLID_45_" class="st2" d="M140.8,88.9c0-28.7-23.3-51.9-52.1-51.9c-28.8,0-52.1,23.2-52.1,51.9s23.3,51.9,52.1,51.9
	C117.4,140.8,140.8,117.6,140.8,88.9"/>
<polygon id="XMLID_44_" class="st1" points="91.3,54.6 89.6,54.6 87.5,54.6 85.9,54.6 61.6,115.3 71.8,115.3 76,104.9 76,104.9 
	79.7,95.5 79.6,95.5 88.6,73.1 101.2,104.9 101.2,104.9 105.3,115.3 115.7,115.3 "/>
<path id="XMLID_43_" class="st0" d="M350.5,103.6c-4.6,6.6-12.1,10.2-21.1,10.2c-15.2,0-26.2-11.2-26.2-26.5s11-26.5,26.2-26.5
	c8.8,0,15.8,3.3,20.3,9.6l2.4,3.4l9.6-7.1l-2.2-3.2c-6.4-9.3-17.1-14.5-30.1-14.5c-21.9,0-38.5,16.5-38.5,38.3s16.5,38.3,38.5,38.3
	c12.9,0,24.2-5.5,30.9-15.1l2.3-3.3l-9.7-6.9L350.5,103.6z"/>
<path class="st0" d="M436,78.2c0-17.3-12.1-28.5-30.9-28.5h-17.6v75.1h12.2v-18.2h5.4c2.4,0,4.6-0.2,6.6-0.5l13.7,18.7h15l-16.8-23
	C431.6,96.9,436,88.6,436,78.2 M399.7,61.4h5c15.7,0,18.9,9.1,18.9,16.8c0,7.6-3.3,16.7-18.9,16.7h-5V61.4z"/>
<polygon id="XMLID_40_" class="st0" points="477.6,86.3 509.2,86.3 509.2,74.6 477.6,74.6 477.6,61.4 512.8,61.4 512.8,49.7 
	465.4,49.7 465.4,124.8 514.2,124.8 514.2,113.1 477.6,113.1 "/>
<path class="st0" d="M560.2,49.7h-18.4v75.1h18.4c25.2,0,40.9-14.4,40.9-37.5C601.1,64.1,585.4,49.7,560.2,49.7 M554,61.5h5.7
	c18.7,0,28.9,9.1,28.9,25.8c0,16.6-10.3,25.8-28.9,25.8H554V61.5z"/>
<rect id="XMLID_37_" x="628.9" y="49.7" class="st0" width="12.2" height="75.1"/>
<polygon id="XMLID_36_" class="st0" points="666.6,61.4 687.9,61.4 687.9,124.8 700.2,124.8 700.2,61.4 721.5,61.4 721.5,49.7 
	666.6,49.7 "/>
<polygon id="XMLID_35_" class="st0" points="739.6,61.4 761,61.4 761,124.8 773.2,124.8 773.2,61.4 794.6,61.4 794.6,49.7 
	739.6,49.7 "/>
<polygon id="XMLID_34_" class="st0" points="244.7,48.9 242.6,48.9 240,48.9 237.9,48.9 207.5,124.8 220.4,124.8 225.5,111.8 
	225.5,111.8 230.2,100.1 230.1,100.1 241.3,72.1 257.1,111.8 257.1,111.8 262.2,124.8 275.2,124.8 "/>
<polygon id="XMLID_33_" class="st0" points="842.1,48.9 840.1,48.9 837.4,48.9 835.4,48.9 804.9,124.8 817.8,124.8 822.9,111.8 
	822.9,111.8 827.6,100.1 827.5,100.1 838.7,72.1 854.5,111.8 854.5,111.8 859.7,124.8 872.7,124.8 "/>
</svg>
