<?xml version="1.0" encoding="utf-8"?>
<!-- Generator: Adobe Illustrator 21.1.0, SVG Export Plug-In . SVG Version: 6.00 Build 0)  -->
<svg version="1.1" id="Layer_1" xmlns="http://www.w3.org/2000/svg" xmlns:xlink="http://www.w3.org/1999/xlink" x="0px" y="0px"
	 viewBox="0 0 200.1 40" style="enable-background:new 0 0 200.1 40;" xml:space="preserve">
<style type="text/css">
	.st0{fill:#55565A;}
	.st1{fill:#FFFFFF;}
	.st2{fill:#E2231A;}
</style>
<title>Artboard 3 copy</title>
<path id="_Trazado_" class="st0" d="M24.3,1.9L24.3,1.9c1.2,1.4,3.1,2.1,4.9,1.8c2.8-0.5,5.5,1.4,6.1,4.2c0.1,0.3,0.1,0.6,0.1,0.9
	c0,1.9,1,3.6,2.6,4.5c2.5,1.4,3.4,4.6,1.9,7.1c-0.2,0.3-0.3,0.5-0.6,0.8c-1.2,1.4-1.6,3.4-0.9,5.1c1,2.7-0.4,5.7-3.1,6.7
	c-0.3,0.1-0.6,0.2-0.9,0.2c-1.8,0.3-3.4,1.6-4,3.4c-1,2.7-4,4.1-6.7,3.1c-0.3-0.1-0.6-0.2-0.8-0.4c-1.6-0.9-3.6-0.9-5.2,0
	c-2.5,1.4-5.7,0.6-7.1-1.9c-0.2-0.3-0.3-0.5-0.4-0.8c-0.6-1.8-2.2-3-4-3.4c-2.8-0.5-4.7-3.2-4.2-6C2,26.9,2,26.6,2.1,26.3
	c0.6-1.8,0.3-3.7-0.9-5.1c-1.9-2.2-1.6-5.5,0.6-7.3c0.2-0.2,0.5-0.4,0.8-0.6c1.6-0.9,2.6-2.6,2.6-4.5c0-2.9,2.3-5.2,5.2-5.2
	c0.3,0,0.6,0,0.9,0.1c1.8,0.3,3.7-0.4,4.9-1.8c1.9-2.2,5.2-2.5,7.4-0.7C23.9,1.4,24.1,1.6,24.3,1.9"/>
<path id="_Trazado_2" class="st1" d="M34.2,20.4c0-7.7-6.2-13.9-13.8-13.9c-7.7,0-13.9,6.2-13.9,13.8s6.2,13.9,13.8,13.9
	c0,0,0,0,0.1,0C28,34.2,34.2,28,34.2,20.4"/>
<path id="_Trazado_3" class="st2" d="M32.3,20.4c0-6.6-5.3-12-11.9-12c-6.6,0-12,5.3-12,11.9s5.3,12,11.9,12c0,0,0,0,0.1,0
	C26.9,32.3,32.3,27,32.3,20.4C32.3,20.4,32.3,20.4,32.3,20.4"/>
<polygon id="_Trazado_4" class="st1" points="20.9,12.5 20.6,12.5 20.1,12.5 19.7,12.5 14.1,26.4 16.5,26.4 17.4,24.1 17.4,24.1 
	18.3,21.9 18.3,21.9 20.3,16.8 23.2,24.1 23.2,24.1 24.2,26.4 26.5,26.4 "/>
<path id="_Trazado_5" class="st0" d="M80.4,23.8c-1.1,1.5-2.8,2.3-4.8,2.3c-3.5,0-6-2.6-6-6.1s2.5-6.1,6-6.1c2,0,3.6,0.8,4.7,2.2
	l0.6,0.8l2.2-1.6l-0.5-0.7c-1.5-2.1-3.9-3.3-6.9-3.3c-5,0-8.8,3.8-8.8,8.8s3.8,8.8,8.8,8.8c3,0,5.5-1.3,7.1-3.5l0.5-0.8L80.9,23
	L80.4,23.8z"/>
<path class="st0" d="M100,17.9c0-4-2.8-6.5-7.1-6.5h-4v17.2h2.8v-4.2h1.2c0.5,0,1,0,1.5-0.1l3.1,4.3h3.4l-3.9-5.3
	C98.9,22.2,100,20.3,100,17.9 M91.6,14.1h1.1c3.6,0,4.3,2.1,4.3,3.9s-0.8,3.8-4.3,3.8h-1.1V14.1z"/>
<polygon id="_Trazado_6" class="st0" points="109.5,19.8 116.7,19.8 116.7,17.1 109.5,17.1 109.5,14.1 117.6,14.1 117.6,11.4 
	106.7,11.4 106.7,28.6 117.9,28.6 117.9,25.9 109.5,25.9 "/>
<path class="st0" d="M128.4,11.4h-4.2v17.2h4.2c5.8,0,9.4-3.3,9.4-8.6S134.2,11.4,128.4,11.4 M127,14.1h1.3c4.3,0,6.6,2.1,6.6,5.9
	s-2.3,5.9-6.6,5.9H127V14.1z"/>
<rect id="_Trazado_7" x="144.2" y="11.4" class="st0" width="2.8" height="17.2"/>
<polygon id="_Trazado_8" class="st0" points="152.8,14.1 157.7,14.1 157.7,28.6 160.5,28.6 160.5,14.1 165.4,14.1 165.4,11.4 
	152.8,11.4 "/>
<polygon id="_Trazado_9" class="st0" points="169.6,14.1 174.5,14.1 174.5,28.6 177.3,28.6 177.3,14.1 182.2,14.1 182.2,11.4 
	169.6,11.4 "/>
<polygon id="_Trazado_10" class="st0" points="56.1,11.2 55.6,11.2 55,11.2 54.6,11.2 47.6,28.6 50.5,28.6 51.7,25.6 51.7,25.6 
	52.8,23 52.8,23 55.3,16.5 58.9,25.6 59,25.6 60.1,28.6 63.1,28.6 "/>
<polygon id="_Trazado_11" class="st0" points="193.1,11.2 192.6,11.2 192,11.2 191.5,11.2 184.5,28.6 187.5,28.6 188.7,25.6 
	188.7,25.6 189.7,23 189.7,23 192.3,16.5 195.9,25.6 195.9,25.6 197.1,28.6 200.1,28.6 "/>
</svg>
