<?xml version="1.0" encoding="utf-8"?>
<!-- Generator: Adobe Illustrator 21.1.0, SVG Export Plug-In . SVG Version: 6.00 Build 0)  -->
<svg version="1.1" id="Capa_1" xmlns="http://www.w3.org/2000/svg" xmlns:xlink="http://www.w3.org/1999/xlink" x="0px" y="0px"
	 viewBox="0 0 275.2 55" style="enable-background:new 0 0 275.2 55;" xml:space="preserve">
<style type="text/css">
	.st0{fill:#808285;}
	.st1{fill:#FFFFFF;}
	.st2{fill:#E2231A;}
</style>
<path id="XMLID_14_" class="st0" d="M33.5,2.6L33.5,2.6c1.7,2,4.2,2.9,6.8,2.5c4.4-0.8,8.5,2.6,8.4,7.1c0,2.6,1.4,4.9,3.6,6.2
	c3.9,2.2,4.8,7.4,1.9,10.8c-1.7,2-2.1,4.7-1.3,7.1c1.5,4.2-1.1,8.7-5.5,9.5c-2.5,0.4-4.6,2.2-5.5,4.6c-1.5,4.2-6.5,6-10.4,3.8
	c-2.2-1.3-5-1.3-7.2,0c-3.9,2.2-8.8,0.4-10.4-3.8c-0.9-2.4-3-4.2-5.5-4.6c-4.4-0.8-7.1-5.3-5.5-9.5c0.9-2.4,0.4-5.1-1.3-7.1
	c-2.9-3.4-2-8.6,1.9-10.8c2.2-1.3,3.6-3.7,3.6-6.2c0-4.5,4-7.8,8.4-7.1c2.5,0.5,5.1-0.5,6.8-2.5C25.3-0.9,30.6-0.9,33.5,2.6"/>
<path id="XMLID_46_" class="st1" d="M47,27.5c0-10.5-8.5-19-19.1-19c-10.5,0-19.1,8.5-19.1,19s8.5,19,19.1,19
	C38.5,46.5,47,38,47,27.5"/>
<path id="XMLID_45_" class="st2" d="M44.4,27.5c0-9-7.4-16.4-16.4-16.4c-9.1,0-16.4,7.3-16.4,16.4S18.9,43.9,28,43.9
	C37,43.9,44.4,36.6,44.4,27.5"/>
<polygon id="XMLID_44_" class="st1" points="28.8,18 28.3,18 27.6,18 27.1,18 19.4,37.1 22.7,37.1 24,33.8 24,33.8 25.1,30.9 
	25.1,30.9 27.9,23.8 31.9,33.8 31.9,33.8 33.2,37.1 36.5,37.1 "/>
<path id="XMLID_43_" class="st1" d="M110.5,32.7c-1.5,2.1-3.8,3.2-6.6,3.2c-4.8,0-8.3-3.5-8.3-8.4s3.5-8.4,8.3-8.4c2.8,0,5,1,6.4,3
	l0.8,1.1l3-2.2l-0.7-1c-2-2.9-5.4-4.6-9.5-4.6c-6.9,0-12.1,5.2-12.1,12.1s5.2,12.1,12.1,12.1c4.1,0,7.6-1.7,9.7-4.8l0.7-1l-3.1-2.2
	L110.5,32.7z"/>
<path class="st1" d="M137.5,24.7c0-5.5-3.8-9-9.7-9h-5.6v23.7h3.9v-5.7h1.7c0.7,0,1.4,0,2.1-0.1l4.3,5.9h4.7l-5.3-7.2
	C136.1,30.6,137.5,27.9,137.5,24.7 M126.1,19.4h1.6c4.9,0,6,2.9,6,5.3c0,2.4-1,5.3-6,5.3h-1.6V19.4z"/>
<polygon id="XMLID_40_" class="st1" points="150.6,27.2 160.6,27.2 160.6,23.5 150.6,23.5 150.6,19.4 161.7,19.4 161.7,15.7 
	146.8,15.7 146.8,39.4 162.2,39.4 162.2,35.7 150.6,35.7 "/>
<path class="st1" d="M176.7,15.7h-5.8v23.7h5.8c8,0,12.9-4.5,12.9-11.8C189.6,20.2,184.6,15.7,176.7,15.7 M174.7,19.4h1.8
	c5.9,0,9.1,2.9,9.1,8.1c0,5.2-3.2,8.1-9.1,8.1h-1.8V19.4z"/>
<rect id="XMLID_37_" x="198.4" y="15.7" class="st1" width="3.9" height="23.7"/>
<polygon id="XMLID_36_" class="st1" points="210.2,19.4 217,19.4 217,39.4 220.8,39.4 220.8,19.4 227.6,19.4 227.6,15.7 210.2,15.7 
	"/>
<polygon id="XMLID_35_" class="st1" points="233.3,19.4 240,19.4 240,39.4 243.9,39.4 243.9,19.4 250.6,19.4 250.6,15.7 233.3,15.7 
	"/>
<polygon id="XMLID_34_" class="st1" points="77.2,15.6 76.5,15.6 75.7,15.6 75,15.6 65.4,39.5 69.5,39.5 71.1,35.4 71.1,35.4 
	72.6,31.7 72.6,31.7 76.1,22.9 81.1,35.4 81.1,35.4 82.7,39.5 86.8,39.5 "/>
<polygon id="XMLID_33_" class="st1" points="265.6,15.6 265,15.6 264.1,15.6 263.5,15.6 253.9,39.5 257.9,39.5 259.5,35.4 
	259.6,35.4 261,31.7 261,31.7 264.5,22.9 269.5,35.4 269.5,35.4 271.1,39.5 275.2,39.5 "/>
</svg>
