<?xml version="1.0" encoding="utf-8"?>
<!-- Generator: Adobe Illustrator 21.1.0, SVG Export Plug-In . SVG Version: 6.00 Build 0)  -->
<svg version="1.1" id="Capa_1" xmlns="http://www.w3.org/2000/svg" xmlns:xlink="http://www.w3.org/1999/xlink" x="0px" y="0px"
	 viewBox="0 0 223.2 57" style="enable-background:new 0 0 223.2 57;" xml:space="preserve">
<style type="text/css">
	.st0{fill:#FFFFFF;}
</style>
<g>
	<path class="st0" d="M42.1,14.7c-1.8-1-2.9-2.9-2.9-5c0-3.6-3.3-6.3-6.8-5.7c-2,0.4-4.1-0.4-5.5-2c-2.3-2.8-6.6-2.8-8.9,0
		c-1.3,1.6-3.4,2.3-5.5,2C9.1,3.4,5.8,6.1,5.8,9.7c0,2.1-1.1,4-2.9,5c-3.1,1.8-3.9,6-1.5,8.7c1.3,1.6,1.7,3.8,1,5.7
		c-1.2,3.4,0.9,7,4.4,7.7c2,0.4,3.7,1.8,4.4,3.7c1.2,3.4,5.2,4.8,8.3,3c1.8-1,4-1,5.8,0c3.1,1.8,7.1,0.4,8.3-3
		c0.7-1.9,2.4-3.4,4.4-3.7c3.6-0.6,5.7-4.3,4.4-7.7c-0.7-1.9-0.3-4.1,1-5.7C46,20.7,45.2,16.5,42.1,14.7z M22.5,37.9
		C14,37.9,7.1,31,7.1,22.6c0-8.5,6.9-15.3,15.4-15.3c8.5,0,15.4,6.9,15.4,15.3C37.9,31,31,37.9,22.5,37.9z"/>
	<path class="st0" d="M22.5,9.4c-7.3,0-13.2,5.9-13.2,13.2c0,7.3,5.9,13.2,13.2,13.2c7.3,0,13.2-5.9,13.2-13.2
		C35.7,15.3,29.8,9.4,22.5,9.4z M26.7,29.3l-1-2.6h0l-3.2-8.1l-2.3,5.7h0l-0.9,2.4h0l-1,2.6h-2.6l6.2-15.4h0.4h0.5h0.4l6.2,15.4
		H26.7z"/>
	<path class="st0" d="M89.6,25.5L89,26.3c-1.2,1.7-3.1,2.6-5.4,2.6c-3.9,0-6.6-2.8-6.6-6.7c0-3.9,2.8-6.7,6.6-6.7
		c2.2,0,4,0.8,5.2,2.4l0.6,0.9l2.4-1.8l-0.6-0.8c-1.6-2.4-4.3-3.7-7.6-3.7c-5.6,0-9.8,4.2-9.8,9.7c0,5.6,4.2,9.7,9.8,9.7
		c3.3,0,6.1-1.4,7.8-3.8l0.6-0.8L89.6,25.5z"/>
	<path class="st0" d="M111.9,31.7l-4.3-5.8c2-1.2,3.1-3.4,3.1-6c0-4.4-3.1-7.2-7.8-7.2h-4.5v19.1h3.1v-4.6h1.4c0.6,0,1.2,0,1.7-0.1
		l3.5,4.7H111.9z M102.8,24.1h-1.3v-8.5h1.3c4,0,4.8,2.3,4.8,4.3C107.6,21.8,106.8,24.1,102.8,24.1z"/>
	<polygon class="st0" points="130.6,28.7 121.3,28.7 121.3,21.9 129.3,21.9 129.3,19 121.3,19 121.3,15.6 130.2,15.6 130.2,12.6 
		118.2,12.6 118.2,31.7 130.6,31.7 	"/>
	<path class="st0" d="M152.7,22.2c0-5.9-4-9.5-10.4-9.5h-4.7v19.1h4.7C148.7,31.7,152.7,28,152.7,22.2z M140.7,28.7V15.6h1.4
		c4.7,0,7.3,2.3,7.3,6.5c0,4.2-2.6,6.5-7.3,6.5H140.7z"/>
	<rect x="159.7" y="12.6" class="st0" width="3.1" height="19.1"/>
	<polygon class="st0" points="177.8,31.7 177.8,15.6 183.2,15.6 183.2,12.6 169.3,12.6 169.3,15.6 174.7,15.6 174.7,31.7 	"/>
	<polygon class="st0" points="193.3,31.7 196.4,31.7 196.4,15.6 201.8,15.6 201.8,12.6 187.8,12.6 187.8,15.6 193.3,15.6 	"/>
	<polygon class="st0" points="61.6,12.4 60.9,12.4 60.4,12.4 52.7,31.7 56,31.7 57.3,28.4 57.3,28.4 58.5,25.4 58.4,25.4 61.3,18.3 
		65.3,28.4 65.3,28.4 66.6,31.7 69.9,31.7 62.1,12.4 	"/>
	<polygon class="st0" points="213.9,12.4 213.3,12.4 212.7,12.4 212.2,12.4 204.4,31.7 207.7,31.7 209,28.4 209,28.4 210.2,25.4 
		210.2,25.4 213,18.3 217,28.4 217,28.4 218.3,31.7 221.6,31.7 	"/>
	<polygon class="st0" points="78.5,50.3 80,50.9 80,50.9 81.4,51.4 81.4,51.4 84.7,52.7 80,54.6 80,54.6 78.5,55.2 78.5,56.7 
		87.5,53.1 87.5,52.9 87.5,52.6 87.5,52.3 78.5,48.8 	"/>
	<path class="st0" d="M95,56c-1.1,0-1.9-0.9-1.9-2.6c0-1.9,0.8-2.7,1.9-2.7c0.5,0,0.9,0.1,1.3,0.3l0.1-1c-0.4-0.2-0.9-0.3-1.4-0.3
		c-2,0-3.2,1.4-3.2,3.7c0,2,1,3.6,3.1,3.6c0.5,0,1.1-0.2,1.5-0.3l-0.1-1.1C96,55.8,95.5,56,95,56z"/>
	<path class="st0" d="M100.4,49.7c-1.9,0-2.8,1.4-2.8,3.6c0,2.2,1,3.6,2.8,3.6c1.9,0,2.8-1.4,2.8-3.6
		C103.2,51.1,102.3,49.7,100.4,49.7z M100.4,56c-1.1,0-1.6-0.9-1.6-2.7c0-1.8,0.5-2.7,1.6-2.7c1.1,0,1.6,0.9,1.6,2.7
		C102,55.1,101.5,56,100.4,56z"/>
	<path class="st0" d="M107.8,49.7c-0.8,0-1.4,0.3-1.8,1.1h0l0-1.1h-1.1c0,0.5,0.1,1,0.1,1.5v5.5h1.2v-4.2c0-1.3,0.6-1.9,1.5-1.9
		c0.7,0,1.2,0.5,1.2,1.6v4.5h1.2V52C109.9,50.4,109,49.7,107.8,49.7z"/>
	<path class="st0" d="M114.2,49.7c-1.8,0-2.7,1.4-2.7,3.6c0,2.2,1,3.6,2.8,3.6c0.7,0,1.4-0.2,2-0.4l-0.1-1.1c-0.4,0.3-1,0.6-1.6,0.6
		c-1.3,0-1.9-0.8-1.9-2.4h4v-0.6C116.7,51,115.8,49.7,114.2,49.7z M112.7,52.8c0-1.6,0.7-2.2,1.4-2.2c0.9,0,1.4,0.7,1.4,2.2H112.7z"
		/>
	<path class="st0" d="M121.1,56c-1.1,0-1.9-0.9-1.9-2.6c0-1.9,0.8-2.7,1.9-2.7c0.5,0,0.9,0.1,1.3,0.3l0.1-1
		c-0.4-0.2-0.9-0.3-1.4-0.3c-2,0-3.2,1.4-3.2,3.7c0,2,1,3.6,3.1,3.6c0.5,0,1.1-0.2,1.5-0.3l-0.1-1.1C122.1,55.8,121.6,56,121.1,56z"
		/>
	<path class="st0" d="M125.7,48l-1.2,0.3v1.4h-1.1v0.9h1.1v4.5c0,1.2,0.6,1.7,1.6,1.7c0.3,0,0.7-0.1,1-0.2v-0.9
		c-0.2,0.1-0.4,0.2-0.7,0.2c-0.5,0-0.7-0.3-0.7-1.1v-4.2h1.5v-0.9h-1.5V48z"/>
	<path class="st0" d="M133.2,52.1c0-1-0.3-1.4-0.6-1.7c-0.2-0.2-0.8-0.7-1.9-0.7c-0.7,0-1.4,0.2-2,0.6l0.1,1.1
		c0.4-0.4,1.1-0.7,1.8-0.7c0.5,0,0.9,0.1,1.2,0.4c0.2,0.3,0.3,0.6,0.3,1.1v0.3h-0.7c-2.4,0-3.3,1-3.3,2.4c0,1.4,0.9,2,2,2
		c1.1,0,1.7-0.5,2-1.1h0l0.1,1h1.1c0-0.2-0.1-0.7-0.1-1.1V52.1z M132.1,54.3c0,1-0.6,1.8-1.6,1.8c-0.8,0-1.2-0.5-1.2-1.2
		c0-0.8,0.6-1.5,2-1.5c0.3,0,0.6,0,0.8,0V54.3z"/>
	<path class="st0" d="M141.4,49.7c-0.8,0-1.3,0.4-1.7,1.1c-0.4-0.7-0.9-1.1-1.7-1.1c-0.8,0-1.4,0.3-1.7,1.1h0l0-1.1h-1.1
		c0,0.5,0.1,1,0.1,1.5v5.5h1.2v-4.4c0-1.3,0.5-1.8,1.3-1.8c0.7,0,1.1,0.4,1.1,1.3v4.8h1.2v-4.4c0-1.3,0.5-1.8,1.3-1.8
		c0.7,0,1.1,0.4,1.1,1.3v4.8h1.2V52C143.4,50.4,142.6,49.7,141.4,49.7z"/>
	<path class="st0" d="M147.9,49.7c-1.9,0-2.8,1.4-2.8,3.6c0,2.2,1,3.6,2.8,3.6c1.9,0,2.8-1.4,2.8-3.6
		C150.7,51.1,149.8,49.7,147.9,49.7z M147.9,56c-1.1,0-1.6-0.9-1.6-2.7c0-1.8,0.5-2.7,1.6-2.7c1.1,0,1.6,0.9,1.6,2.7
		C149.5,55.1,149,56,147.9,56z"/>
	<path class="st0" d="M154.8,53l-0.4-0.2c-0.8-0.3-1.2-0.6-1.2-1.2c0-0.6,0.4-1,1.2-1c0.5,0,1,0.1,1.4,0.3l0.1-1
		c-0.4-0.2-0.9-0.2-1.5-0.2c-1.4,0-2.3,0.9-2.3,2c0,0.9,0.4,1.4,1.4,1.8l0.8,0.3c0.6,0.3,0.9,0.6,0.9,1.1c0,0.5-0.5,1-1.3,1
		c-0.6,0-1.1-0.2-1.7-0.5l-0.1,1.1c0.5,0.3,1.2,0.4,1.9,0.4c1.6,0,2.3-1,2.3-2.2C156.2,53.9,155.7,53.3,154.8,53z"/>
	<path class="st0" d="M164.4,49.7c-0.8,0-1.4,0.5-1.7,1.1h0v-4.3h-1.2v10.4h1.2v-4.2c0-1.3,0.6-1.9,1.5-1.9c0.7,0,1.2,0.5,1.2,1.6
		v4.5h1.2V52C166.4,50.4,165.6,49.7,164.4,49.7z"/>
	<path class="st0" d="M173.2,52.1c0-1-0.3-1.4-0.6-1.7c-0.2-0.2-0.8-0.7-1.9-0.7c-0.7,0-1.4,0.2-2,0.6l0.1,1.1
		c0.4-0.4,1.1-0.7,1.8-0.7c0.5,0,0.9,0.1,1.2,0.4c0.2,0.3,0.3,0.6,0.3,1.1v0.3h-0.7c-2.4,0-3.3,1-3.3,2.4c0,1.4,0.9,2,2,2
		c1.1,0,1.7-0.5,2-1.1h0l0.1,1h1.1c0-0.2-0.1-0.7-0.1-1.1V52.1z M172.1,54.3c0,1-0.6,1.8-1.6,1.8c-0.8,0-1.2-0.5-1.2-1.2
		c0-0.8,0.6-1.5,2-1.5c0.3,0,0.6,0,0.8,0V54.3z"/>
	<path class="st0" d="M178,49.7c-0.8,0-1.3,0.3-1.8,1.1h0v-4.3h-1.2v9.1c0,0.4,0,0.9-0.1,1.3h1.1l0-1h0c0.3,0.6,0.8,1.1,1.9,1.1
		c1.5,0,2.4-1.2,2.4-3.6S179.5,49.7,178,49.7z M177.8,56c-1.1,0-1.5-0.9-1.5-2.7c0-1.8,0.5-2.7,1.5-2.7s1.5,0.9,1.5,2.7
		C179.3,55.1,178.8,56,177.8,56z"/>
	<rect x="182.2" y="46.9" class="st0" width="1.3" height="1.4"/>
	<rect x="182.2" y="49.8" class="st0" width="1.2" height="7"/>
	<rect x="185.6" y="46.5" class="st0" width="1.2" height="10.4"/>
	<rect x="189" y="46.9" class="st0" width="1.3" height="1.4"/>
	<rect x="189" y="49.8" class="st0" width="1.2" height="7"/>
	<path class="st0" d="M197.4,46.5h-1.2v4.3h0c-0.5-0.7-1-1.1-1.8-1.1c-1.5,0-2.4,1.2-2.4,3.6s1,3.6,2.4,3.6c1,0,1.5-0.6,1.9-1.1h0
		l0,1h1.1c0-0.4-0.1-0.9-0.1-1.3V46.5z M194.7,56c-1.1,0-1.5-0.9-1.5-2.7c0-1.8,0.5-2.7,1.5-2.7c1.1,0,1.5,0.9,1.5,2.7
		C196.2,55.1,195.7,56,194.7,56z"/>
	<path class="st0" d="M204,52.1c0-1-0.3-1.4-0.6-1.7c-0.2-0.2-0.8-0.7-1.9-0.7c-0.7,0-1.4,0.2-2,0.6l0.1,1.1
		c0.4-0.4,1.1-0.7,1.8-0.7c0.5,0,0.9,0.1,1.2,0.4c0.2,0.3,0.3,0.6,0.3,1.1v0.3h-0.7c-2.4,0-3.3,1-3.3,2.4c0,1.4,0.9,2,2,2
		c1.1,0,1.7-0.5,2-1.1h0l0.1,1h1.1c0-0.2-0.1-0.7-0.1-1.1V52.1z M202.9,54.3c0,1-0.6,1.8-1.6,1.8c-0.8,0-1.2-0.5-1.2-1.2
		c0-0.8,0.6-1.5,2-1.5c0.3,0,0.6,0,0.8,0V54.3z"/>
	<path class="st0" d="M211,46.5h-1.2v4.3h0c-0.5-0.7-1-1.1-1.8-1.1c-1.5,0-2.4,1.2-2.4,3.6s1,3.6,2.4,3.6c1,0,1.5-0.6,1.9-1.1h0l0,1
		h1.1c0-0.4-0.1-0.9-0.1-1.3V46.5z M208.3,56c-1.1,0-1.5-0.9-1.5-2.7c0-1.8,0.5-2.7,1.5-2.7c1.1,0,1.5,0.9,1.5,2.7
		C209.9,55.1,209.4,56,208.3,56z"/>
	<path class="st0" d="M215.3,49.7c-1.8,0-2.7,1.4-2.7,3.6c0,2.2,1,3.6,2.8,3.6c0.7,0,1.4-0.2,2-0.4l-0.1-1.1c-0.4,0.3-1,0.6-1.6,0.6
		c-1.3,0-1.9-0.8-1.9-2.4h4v-0.6C217.8,51,216.9,49.7,215.3,49.7z M213.8,52.8c0-1.6,0.7-2.2,1.4-2.2c0.9,0,1.4,0.7,1.4,2.2H213.8z"
		/>
	<path class="st0" d="M221.8,53l-0.4-0.2c-0.8-0.3-1.2-0.6-1.2-1.2c0-0.6,0.4-1,1.2-1c0.5,0,1,0.1,1.4,0.3l0.1-1
		c-0.4-0.2-0.9-0.2-1.5-0.2c-1.4,0-2.3,0.9-2.3,2c0,0.9,0.4,1.4,1.4,1.8l0.8,0.3c0.6,0.3,0.9,0.6,0.9,1.1c0,0.5-0.5,1-1.3,1
		c-0.6,0-1.1-0.2-1.7-0.5l-0.1,1.1c0.5,0.3,1.2,0.4,1.9,0.4c1.6,0,2.3-1,2.3-2.2C223.2,53.9,222.6,53.3,221.8,53z"/>
</g>
</svg>
