<?xml version="1.0" encoding="utf-8"?>
<!-- Generator: Adobe Illustrator 21.1.0, SVG Export Plug-In . SVG Version: 6.00 Build 0)  -->
<svg version="1.1" id="Layer_1" xmlns="http://www.w3.org/2000/svg" xmlns:xlink="http://www.w3.org/1999/xlink" x="0px" y="0px"
	 viewBox="0 0 40.7 40" style="enable-background:new 0 0 40.7 40;" xml:space="preserve">
<style type="text/css">
	.st0{fill:#EDF0F2;}
	.st1{fill:#FFFFFF;}
</style>
<title>Artboard 3 copy</title>
<path id="_Trazado_" class="st0" d="M24.4,1.9L24.4,1.9c1.2,1.4,3.1,2.1,4.9,1.8c2.8-0.5,5.5,1.4,6.1,4.2c0.1,0.3,0.1,0.6,0.1,0.9
	c0,1.9,1,3.6,2.6,4.5c2.5,1.4,3.4,4.6,1.9,7.1c-0.2,0.3-0.3,0.5-0.6,0.8c-1.2,1.4-1.6,3.4-0.9,5.1c1,2.7-0.4,5.7-3.1,6.7
	c-0.3,0.1-0.6,0.2-0.9,0.2c-1.8,0.3-3.4,1.6-4,3.4c-1,2.7-4,4.1-6.7,3.1c-0.3-0.1-0.6-0.2-0.8-0.4c-1.6-0.9-3.6-0.9-5.2,0
	c-2.5,1.4-5.7,0.6-7.1-1.9c-0.2-0.3-0.3-0.5-0.4-0.8c-0.6-1.8-2.2-3-4-3.4c-2.8-0.5-4.7-3.2-4.2-6c0-0.3,0-0.6,0.1-0.9
	c0.6-1.8,0.3-3.7-0.9-5.1c-1.9-2.2-1.6-5.5,0.6-7.3c0.2-0.2,0.5-0.4,0.8-0.6c1.6-0.9,2.6-2.6,2.6-4.5c0-2.9,2.3-5.2,5.2-5.2
	c0.3,0,0.6,0,0.9,0.1c1.8,0.3,3.7-0.4,4.9-1.8c1.9-2.2,5.2-2.5,7.4-0.7C24,1.4,24.2,1.6,24.4,1.9"/>
<path id="_Trazado_2" class="st1" d="M34.3,20.4c0-7.7-6.2-13.9-13.8-13.9c-7.7,0-13.9,6.2-13.9,13.8s6.2,13.9,13.8,13.9
	c0,0,0,0,0.1,0C28.1,34.2,34.3,28,34.3,20.4"/>
<path id="_Trazado_3" class="st0" d="M32.4,20.4c0-6.6-5.3-12-11.9-12s-12,5.3-12,11.9s5.3,12,11.9,12c0,0,0,0,0.1,0
	C27,32.3,32.4,27,32.4,20.4L32.4,20.4"/>
<polygon id="_Trazado_4" class="st1" points="21,12.5 20.7,12.5 20.2,12.5 19.8,12.5 14.2,26.4 16.6,26.4 17.5,24.1 17.5,24.1 
	18.4,21.9 18.4,21.9 20.4,16.8 23.3,24.1 23.3,24.1 24.3,26.4 26.6,26.4 "/>
</svg>
