<?xml version="1.0" encoding="utf-8"?>
<!-- Generator: Adobe Illustrator 21.1.0, SVG Export Plug-In . SVG Version: 6.00 Build 0)  -->
<svg version="1.1" id="Capa_1" xmlns="http://www.w3.org/2000/svg" xmlns:xlink="http://www.w3.org/1999/xlink" x="0px" y="0px"
	 viewBox="0 0 26.7 26.7" style="enable-background:new 0 0 26.7 26.7;" xml:space="preserve">
<style type="text/css">
	.st0{fill:#FFFFFF;}
	.st1{fill-rule:evenodd;clip-rule:evenodd;fill:#FFFFFF;}
</style>
<g>
	<path class="st0" d="M13.4,0c3.7,0,7,1.5,9.5,3.9c2.4,2.4,3.9,5.8,3.9,9.5c0,3.7-1.5,7-3.9,9.5c-2.4,2.4-5.8,3.9-9.5,3.9
		c-3.7,0-7-1.5-9.5-3.9C1.5,20.4,0,17.1,0,13.4c0-3.7,1.5-7,3.9-9.5C6.3,1.5,9.7,0,13.4,0L13.4,0z M22.1,4.7C19.9,2.4,16.8,1,13.4,1
		C10,1,6.9,2.4,4.7,4.7C2.4,6.9,1,10,1,13.4c0,3.4,1.4,6.5,3.6,8.7c2.2,2.2,5.3,3.6,8.7,3.6c3.4,0,6.5-1.4,8.7-3.6
		c2.2-2.2,3.6-5.3,3.6-8.7C25.7,10,24.3,6.9,22.1,4.7L22.1,4.7z"/>
	<path class="st1" d="M14.4,10.6V9.5c0-0.5,0.3-0.7,0.6-0.7c0.2,0,1.5,0,1.5,0V6.5h-2.1c-2.3,0-2.9,1.7-2.9,2.9v1.2h-1.4v1.7v1.1
		h1.4c0,3.1,0,6.8,0,6.8h2.7c0,0,0-3.8,0-6.8h2l0.1-1.1l0.2-1.7H14.4z"/>
</g>
</svg>
