<?xml version="1.0" encoding="utf-8"?>
<!-- Generator: Adobe Illustrator 21.1.0, SVG Export Plug-In . SVG Version: 6.00 Build 0)  -->
<svg version="1.1" id="Capa_1" xmlns="http://www.w3.org/2000/svg" xmlns:xlink="http://www.w3.org/1999/xlink" x="0px" y="0px"
	 viewBox="0 0 26.7 26.8" style="enable-background:new 0 0 26.7 26.8;" xml:space="preserve">
<style type="text/css">
	.st0{fill:#FFFFFF;}
	.st1{fill-rule:evenodd;clip-rule:evenodd;fill:#FFFFFF;}
</style>
<g>
	<path class="st0" d="M13.4,0c3.7,0,7,1.5,9.5,3.9c2.4,2.4,3.9,5.8,3.9,9.5c0,3.7-1.5,7-3.9,9.5c-2.4,2.4-5.8,3.9-9.5,3.9
		c-3.7,0-7-1.5-9.5-3.9C1.5,20.4,0,17.1,0,13.4c0-3.7,1.5-7,3.9-9.5C6.3,1.5,9.7,0,13.4,0L13.4,0z M22.1,4.7
		c-2.2-2.2-5.3-3.6-8.7-3.6c-3.4,0-6.5,1.4-8.7,3.6C2.4,6.9,1,10,1,13.4c0,3.4,1.4,6.5,3.6,8.7c2.2,2.2,5.3,3.6,8.7,3.6
		c3.4,0,6.5-1.4,8.7-3.6c2.2-2.2,3.6-5.3,3.6-8.7C25.7,10,24.3,6.9,22.1,4.7L22.1,4.7z"/>
	<path class="st1" d="M20.2,9.2c-0.5,0.2-1,0.4-1.6,0.4c0.6-0.3,1-0.9,1.2-1.5c-0.5,0.3-1.1,0.5-1.8,0.7c-0.5-0.5-1.2-0.9-2.1-0.9
		c-1.5,0-2.8,1.2-2.8,2.8c0,0.2,0,0.4,0.1,0.6c-2.3-0.1-4.4-1.2-5.8-2.9C7.3,8.8,7.1,9.3,7.1,9.8c0,1,0.5,1.8,1.2,2.3
		c-0.5,0-0.9-0.1-1.3-0.3c0,0,0,0,0,0c0,0.4,0.1,0.7,0.2,1c0.3,0.9,1.1,1.5,2.1,1.7c-0.2,0.1-0.5,0.1-0.7,0.1c-0.2,0-0.4,0-0.5-0.1
		c0.4,1.1,1.4,1.9,2.6,1.9c-1,0.7-2.2,1.2-3.5,1.2c-0.2,0-0.4,0-0.7,0c1.2,0.8,2.7,1.2,4.3,1.2c4.4,0,7.1-3,7.8-6.2
		c0.1-0.6,0.2-1.1,0.2-1.7c0-0.1,0-0.2,0-0.4C19.3,10.2,19.8,9.8,20.2,9.2L20.2,9.2z"/>
</g>
</svg>
