<?xml version="1.0" encoding="utf-8"?>
<!-- Generator: Adobe Illustrator 21.1.0, SVG Export Plug-In . SVG Version: 6.00 Build 0)  -->
<svg version="1.1" id="Capa_1" xmlns="http://www.w3.org/2000/svg" xmlns:xlink="http://www.w3.org/1999/xlink" x="0px" y="0px"
	 viewBox="0 0 26.7 26.7" style="enable-background:new 0 0 26.7 26.7;" xml:space="preserve">
<style type="text/css">
	.st0{fill:#FFFFFF;}
</style>
<g>
	<path class="st0" d="M13.4,0c3.7,0,7,1.5,9.5,3.9c2.4,2.4,3.9,5.8,3.9,9.5c0,3.7-1.5,7-3.9,9.5c-2.4,2.4-5.8,3.9-9.5,3.9
		c-3.7,0-7-1.5-9.5-3.9C1.5,20.4,0,17.1,0,13.4c0-3.7,1.5-7,3.9-9.5C6.3,1.5,9.7,0,13.4,0L13.4,0z M22.1,4.7C19.9,2.4,16.8,1,13.4,1
		C10,1,6.9,2.4,4.7,4.7C2.4,6.9,1,10,1,13.4c0,3.4,1.4,6.5,3.6,8.7c2.2,2.2,5.3,3.6,8.7,3.6c3.4,0,6.5-1.4,8.7-3.6
		c2.2-2.2,3.6-5.3,3.6-8.7C25.7,10,24.3,6.9,22.1,4.7L22.1,4.7z"/>
	<g>
		<path id="LinkedIn" class="st0" d="M19.6,14.7v4.6h-2.7V15c0-1.1-0.4-1.8-1.4-1.8c-0.7,0-1.2,0.5-1.4,1c-0.1,0.2-0.1,0.4-0.1,0.7
			v4.5h-2.7c0,0,0-7.3,0-8h2.7v1.1c0,0,0,0,0,0h0v0c0.4-0.5,1-1.3,2.4-1.3C18.3,11.1,19.6,12.3,19.6,14.7z M8.6,7.4
			C7.7,7.4,7.1,8,7.1,8.8c0,0.8,0.6,1.4,1.5,1.4h0c0.9,0,1.5-0.6,1.5-1.4C10.1,8,9.6,7.4,8.6,7.4z M7.3,19.3H10v-8H7.3V19.3z"/>
	</g>
</g>
</svg>
