<?xml version="1.0" encoding="utf-8"?>
<!-- Generator: Adobe Illustrator 21.1.0, SVG Export Plug-In . SVG Version: 6.00 Build 0)  -->
<svg version="1.1" id="Layer_1" xmlns="http://www.w3.org/2000/svg" xmlns:xlink="http://www.w3.org/1999/xlink" x="0px" y="0px"
	 viewBox="0 0 226.8 225.4" style="enable-background:new 0 0 226.8 225.4;" xml:space="preserve">
<style type="text/css">
	.st0{opacity:0.2;}
</style>
<path class="st0" d="M223.4,111c5.2-5.9,4.3-14.4-2.2-18.9l-5.2-3.6c-6.4-4.5-10.1-14.5-8.2-22.1l1.5-6.1
	c1.9-7.6-2.9-14.7-10.7-15.7l-6.3-0.8c-7.8-1-15.7-8.1-17.6-15.8l-1.5-6.1c-1.9-7.6-9.4-11.7-16.8-9l-5.9,2.2
	c-7.4,2.7-17.7,0.1-22.9-5.8l-4.2-4.7c-0.3-0.4-0.7-0.7-1-1.1c-0.1-0.1-0.2-0.1-0.3-0.2c-0.3-0.2-0.6-0.5-0.8-0.7
	c-0.1-0.1-0.2-0.1-0.2-0.2c-0.3-0.2-0.6-0.4-0.9-0.6c-0.1,0-0.1-0.1-0.2-0.1c-0.3-0.2-0.7-0.4-1-0.5h-0.1c-0.4-0.2-0.8-0.3-1.2-0.4
	l0,0c-1.3-0.6-2.7-0.8-4-0.8l0,0l0,0c-3.4,0.1-6.7,1.5-9.3,4.3L100.2,9c-5.3,5.8-15.6,8.3-22.9,5.5l-5.9-2.3
	c-7.3-2.8-15,1.1-16.9,8.7L52.9,27c-2,7.6-9.9,14.6-17.8,15.5l-6.3,0.7C21,44.3,16.1,51.4,17.9,59l1.5,6.2c1.8,7.7-2,17.6-8.5,22
	l-5.2,3.6c-6.5,4.4-7.6,12.9-2.4,18.9l4.1,4.8c5.2,5.9,6.4,16.5,2.7,23.4l-3,5.6c-3.7,7-0.7,15,6.6,17.8l5.9,2.3
	C27,166.5,33,175.2,33,183.1v6.3c0,7.9,6.4,13.6,14.2,12.7l6.3-0.7c7.8-0.9,17.2,4.1,20.8,11.1l2.9,5.6c3.6,7,11.9,9.1,18.5,4.7
	l5.2-3.5c3.5-2.4,8.3-3.4,12.9-3.2l0,0c0.5,0,0.9,0.1,1.4,0.1h0.1c0.4,0,0.9,0.1,1.3,0.2c0.1,0,0.2,0,0.2,0c0.4,0.1,0.8,0.1,1.2,0.2
	c0.1,0,0.2,0.1,0.4,0.1c0.3,0.1,0.7,0.2,1,0.3c0.2,0,0.3,0.1,0.5,0.2c0.3,0.1,0.6,0.2,0.9,0.3c0.2,0.1,0.4,0.2,0.6,0.2
	c0.2,0.1,0.5,0.2,0.7,0.3c0.3,0.1,0.5,0.3,0.8,0.4c0.2,0.1,0.3,0.2,0.5,0.3c0.4,0.2,0.8,0.5,1.2,0.8l5.2,3.6
	c6.5,4.5,14.8,2.5,18.5-4.4l3-5.6c3.7-6.9,13.2-11.8,21-10.8l6.3,0.8c7.8,1,14.3-4.7,14.3-12.5l0.1-6.3c0.1-7.9,6.2-16.6,13.5-19.3
	l5.9-2.2c7.4-2.8,10.5-10.8,6.9-17.8l-2.9-5.6c-3.6-7-2.2-17.5,3-23.4L223.4,111z"/>
</svg>
